<svg width="52" height="52" viewBox="0 0 52 52" fill="none" xmlns="http://www.w3.org/2000/svg">
<g clip-path="url(#clip0)">
<path d="M26.7202 10.0242L16.9704 1.35771C16.6233 1.04866 16.1176 0.995445 15.7138 1.22558L0.547349 9.89205C0.0277657 10.1887 -0.15291 10.8504 0.143646 11.37C0.21159 11.489 0.301471 11.594 0.408618 11.6795L11.2418 20.346C11.4335 20.4998 11.6719 20.5838 11.9178 20.5843C12.1181 20.5844 12.3147 20.5289 12.4854 20.424L26.5685 11.7575C27.0782 11.4442 27.2375 10.777 26.9241 10.2673C26.8685 10.1767 26.7997 10.0948 26.7202 10.0242Z" fill="#2196F3"/>
<path d="M26.6156 28.3603L12.5326 18.6105C12.1406 18.339 11.6173 18.3557 11.2434 18.6516L0.410293 27.2314C-0.0585106 27.6031 -0.13722 28.2845 0.234491 28.7533C0.319498 28.8605 0.423902 28.9505 0.542423 29.0189L15.7088 37.7721C16.0908 37.9937 16.5692 37.9611 16.9177 37.6897L26.6675 30.1065C27.1401 29.7396 27.2257 29.059 26.8588 28.5864C26.7911 28.4993 26.7105 28.423 26.6198 28.3602L26.6156 28.3603Z" fill="#2196F3"/>
<path d="M51.5926 27.3203L40.7594 18.6538C40.3845 18.3513 39.8546 18.3327 39.4595 18.6083L25.3764 28.3581C24.8845 28.6988 24.7618 29.3736 25.1025 29.8655C25.1652 29.9562 25.2416 30.0368 25.3287 30.1045L35.0785 37.6877C35.4248 37.9575 35.8997 37.9917 36.281 37.7743L51.4473 29.1078C51.9669 28.8112 52.1476 28.1495 51.8511 27.6299C51.7831 27.5109 51.6932 27.4059 51.5861 27.3204L51.5926 27.3203Z" fill="#2196F3"/>
<path d="M51.4539 9.89424L36.2876 1.22778C35.8837 0.997642 35.3781 1.05086 35.031 1.35991L25.2812 10.0264C24.8336 10.4234 24.7927 11.1081 25.1897 11.5557C25.2602 11.6352 25.3422 11.7039 25.4328 11.7597L39.5159 20.4262C39.6868 20.5304 39.8833 20.5851 40.0835 20.5843C40.3291 20.5845 40.5674 20.5012 40.7595 20.3482L51.5927 11.6817C52.0602 11.3085 52.1368 10.6268 51.7636 10.1592C51.678 10.0521 51.573 9.96219 51.4539 9.89424Z" fill="#2196F3"/>
<path d="M37.3622 39.6506C36.2195 40.3031 34.7961 40.2022 33.7569 39.395L26.0004 33.3674L18.2461 39.3993C17.2027 40.2102 15.7724 40.3087 14.6278 39.6484L10.834 37.4601V41.1672C10.8339 41.5436 11.0291 41.8929 11.3496 42.0902L25.4327 50.7566C25.7803 50.9699 26.2183 50.9699 26.5658 50.7566L40.6489 42.0902C40.9702 41.8934 41.1664 41.544 41.1668 41.1672V37.484L37.3622 39.6506Z" fill="#2196F3"/>
</g>
<defs>
<clipPath id="clip0">
<rect width="52" height="52" fill="white"/>
</clipPath>
</defs>
</svg>
