<svg width="50" height="50" viewBox="0 0 50 50" fill="none" xmlns="http://www.w3.org/2000/svg">
<path d="M45.2977 16.7601C44.3462 14.4647 42.4176 11.9865 40.9037 11.2037C42.136 13.6252 42.8487 16.054 43.1212 17.8663C43.1212 17.8663 43.1212 17.8791 43.1258 17.9028C40.6494 11.7153 36.4496 9.21977 33.0199 3.78761C32.8458 3.51358 32.6726 3.23955 32.5031 2.94634C32.4074 2.78101 32.3299 2.63121 32.2625 2.48963C32.1203 2.21496 32.0105 1.92468 31.9353 1.62461C31.9359 1.61036 31.9312 1.5964 31.9221 1.58543C31.913 1.57446 31.9001 1.56726 31.886 1.56524C31.8726 1.56159 31.8585 1.56159 31.845 1.56524C31.8414 1.56689 31.838 1.56904 31.835 1.57163C31.8295 1.57163 31.8241 1.57802 31.8186 1.57985L31.8277 1.56798C26.3254 4.79786 24.4588 10.7726 24.2875 13.7623C22.0887 13.9129 19.9864 14.7243 18.2547 16.0906C18.0737 15.9372 17.8845 15.7939 17.6878 15.6613C17.1888 13.9105 17.1677 12.0575 17.6267 10.2958C15.3764 11.3234 13.6265 12.9447 12.3541 14.3797H12.3441C11.4755 13.2772 11.5366 9.64086 11.5858 8.8818C11.5758 8.8343 10.9387 9.21338 10.8567 9.27092C10.0902 9.8189 9.37375 10.4339 8.7157 11.1087C7.96688 11.8696 7.28275 12.6918 6.67046 13.5668C5.26175 15.5676 4.26272 17.8283 3.7311 20.2184C3.72107 20.2659 3.71196 20.3152 3.70193 20.3636C3.66092 20.5563 3.51236 21.5237 3.48593 21.7337V21.7822C3.29225 22.7817 3.17162 23.794 3.125 24.8111V24.9234C3.125 37.0465 12.932 46.875 25.0285 46.875C35.8626 46.875 44.8575 38.9921 46.6193 28.6374C46.6558 28.357 46.6858 28.0739 46.7186 27.7907C47.1543 24.0255 46.6703 20.0686 45.2977 16.7601ZM20.0511 33.9436C20.1532 33.992 20.2498 34.0459 20.3547 34.0934L20.3692 34.1025C20.2644 34.0513 20.1578 33.9984 20.0521 33.9436H20.0511ZM43.1276 17.9129V17.8919V17.9156V17.9129Z" fill="url(#paint0_linear)"/>
<path d="M45.2977 16.7601C44.3461 14.4647 42.4176 11.9866 40.9037 11.2038C42.1359 13.6253 42.8487 16.0541 43.1212 17.8663V17.9111C45.1883 23.5268 44.0618 29.2376 42.4394 32.7269C39.9294 38.1252 33.8529 43.6588 24.3403 43.3893C14.0712 43.097 5.01799 35.4507 3.32729 25.4441C3.01923 23.8648 3.32729 23.0637 3.48223 21.7822C3.29357 22.7696 3.22156 23.0555 3.12769 24.8111V24.9235C3.12769 37.0465 12.9347 46.875 25.0311 46.875C35.8653 46.875 44.8602 38.9921 46.622 28.6375C46.6584 28.357 46.6885 28.0739 46.7213 27.7907C47.1543 24.0256 46.6703 20.0686 45.2977 16.7601Z" fill="url(#paint1_radial)"/>
<path d="M45.2977 16.7601C44.3461 14.4647 42.4176 11.9866 40.9037 11.2038C42.1359 13.6253 42.8487 16.0541 43.1212 17.8663V17.9111C45.1883 23.5268 44.0618 29.2376 42.4394 32.7269C39.9294 38.1252 33.8529 43.6588 24.3403 43.3893C14.0712 43.097 5.01799 35.4507 3.32729 25.4441C3.01923 23.8648 3.32729 23.0637 3.48223 21.7822C3.29357 22.7696 3.22156 23.0555 3.12769 24.8111V24.9235C3.12769 37.0465 12.9347 46.875 25.0311 46.875C35.8653 46.875 44.8602 38.9921 46.622 28.6375C46.6584 28.357 46.6885 28.0739 46.7213 27.7907C47.1543 24.0256 46.6703 20.0686 45.2977 16.7601Z" fill="url(#paint2_radial)"/>
<path d="M34.6532 19.3397C34.7015 19.3735 34.7444 19.4073 34.7899 19.4411C34.2402 18.4629 33.5553 17.5674 32.7556 16.7812C25.9472 9.95788 30.971 1.98548 31.8178 1.57991L31.8269 1.56804C26.3246 4.79792 24.458 10.7727 24.2866 13.7623C24.5418 13.745 24.7961 13.723 25.0559 13.723C29.1619 13.723 32.7383 15.9865 34.6532 19.3397Z" fill="url(#paint3_radial)"/>
<path d="M25.0696 20.7026C25.034 21.2506 23.1091 23.1323 22.4355 23.1323C16.2068 23.1323 15.196 26.9084 15.196 26.9084C15.4695 30.089 17.6806 32.7078 20.3556 34.0935C20.4778 34.1565 20.6008 34.2131 20.7202 34.2697C20.9344 34.3611 21.1495 34.4524 21.3637 34.5337C22.2811 34.858 23.2417 35.0427 24.2137 35.0818C35.1308 35.5951 37.2472 21.9997 29.3679 18.0518C31.3848 17.7001 33.4793 18.514 34.6487 19.337C32.7347 15.9838 29.1573 13.7203 25.0513 13.7203C24.7916 13.7203 24.5373 13.7423 24.2821 13.7596C22.0849 13.9122 19.9846 14.7245 18.2548 16.0907C18.5893 16.3748 18.9666 16.7529 19.7605 17.5366C21.2498 19.0091 25.0614 20.5245 25.0696 20.7026Z" fill="url(#paint4_radial)"/>
<path d="M25.0696 20.7026C25.034 21.2506 23.1091 23.1323 22.4355 23.1323C16.2068 23.1323 15.196 26.9084 15.196 26.9084C15.4695 30.089 17.6806 32.7078 20.3556 34.0935C20.4778 34.1565 20.6008 34.2131 20.7202 34.2697C20.9344 34.3611 21.1495 34.4524 21.3637 34.5337C22.2811 34.858 23.2417 35.0427 24.2137 35.0818C35.1308 35.5951 37.2472 21.9997 29.3679 18.0518C31.3848 17.7001 33.4793 18.514 34.6487 19.337C32.7347 15.9838 29.1573 13.7203 25.0513 13.7203C24.7916 13.7203 24.5373 13.7423 24.2821 13.7596C22.0849 13.9122 19.9846 14.7245 18.2548 16.0907C18.5893 16.3748 18.9666 16.7529 19.7605 17.5366C21.2498 19.0091 25.0614 20.5245 25.0696 20.7026Z" fill="url(#paint5_radial)"/>
<path d="M17.2366 15.3608C17.4143 15.4759 17.5602 15.5728 17.6923 15.6614C17.1933 13.9106 17.1722 12.0576 17.6313 10.2959C15.3809 11.3235 13.631 12.9448 12.3586 14.3798C12.4616 14.3771 15.6389 14.3195 17.2366 15.3608Z" fill="url(#paint6_radial)"/>
<path d="M3.32772 25.4441C5.01842 35.4507 14.0716 43.097 24.348 43.3893C33.8606 43.6588 39.9334 38.1252 42.4472 32.7269C44.0695 29.2367 45.196 23.5268 43.1289 17.9111V17.869C43.1289 17.8745 43.1289 17.8818 43.1335 17.9056C43.91 22.9906 41.3297 27.9168 37.2958 31.248C37.2916 31.2574 37.2876 31.2668 37.2839 31.2763C29.4228 37.6914 21.9008 35.1465 20.3778 34.108C20.2721 34.0568 20.1655 34.0038 20.0597 33.949C15.4762 31.7568 13.5831 27.5687 13.9887 23.9799C10.1197 23.9799 8.79994 20.708 8.79994 20.708C8.79994 20.708 12.2743 18.2253 16.8533 20.3846C21.0942 22.385 25.0771 20.7089 25.0771 20.708C25.0689 20.5299 21.2573 19.0099 19.7708 17.542C18.977 16.7583 18.5996 16.3801 18.2651 16.0961C18.0841 15.9427 17.8949 15.7994 17.6982 15.6668C17.5679 15.5754 17.4248 15.4841 17.2425 15.3662C15.6448 14.3249 12.4675 14.3825 12.3627 14.3852H12.3527C11.4841 13.2827 11.5452 9.64635 11.5944 8.88729C11.5844 8.83979 10.9473 9.21887 10.8652 9.27641C10.0988 9.82439 9.38233 10.4394 8.72429 11.1142C7.97546 11.8751 7.29134 12.6973 6.67904 13.5723C5.27034 15.573 4.2713 17.8338 3.73969 20.2239C3.72237 20.2659 2.9431 23.6757 3.32772 25.4441Z" fill="url(#paint7_radial)"/>
<path d="M32.7557 16.7811C33.5554 17.5673 34.2402 18.4628 34.79 19.441C34.9039 19.5268 35.0134 19.6182 35.1181 19.7151C40.0835 24.2968 37.486 30.7831 37.2882 31.2489C41.3222 27.9177 43.9024 22.9915 43.1259 17.9065C40.6495 11.7153 36.4497 9.21977 33.02 3.78761C32.8459 3.51358 32.6727 3.23955 32.5032 2.94634C32.4075 2.78101 32.33 2.63121 32.2626 2.48963C32.1205 2.21496 32.0106 1.92468 31.9354 1.62461C31.936 1.61036 31.9313 1.5964 31.9222 1.58543C31.9131 1.57446 31.9002 1.56726 31.8862 1.56524C31.8727 1.56159 31.8586 1.56159 31.8451 1.56524C31.8415 1.56689 31.8381 1.56904 31.8351 1.57163C31.8296 1.57163 31.8242 1.57802 31.8187 1.57985C30.9711 1.98541 25.9473 9.95782 32.7557 16.7811Z" fill="url(#paint8_radial)"/>
<path d="M35.1162 19.7105C35.0115 19.6137 34.902 19.5223 34.7881 19.4365C34.7435 19.4027 34.697 19.3689 34.6514 19.3351C33.482 18.513 31.3876 17.6983 29.3706 18.0499C37.249 21.9978 35.1336 35.5933 24.2165 35.0799C23.2445 35.0409 22.2838 34.8561 21.3664 34.5318C21.1523 34.4515 20.9372 34.3629 20.723 34.2679C20.599 34.2112 20.476 34.1546 20.3584 34.0916L20.373 34.1007C21.896 35.142 29.418 37.6868 37.2791 31.2691C37.2791 31.2691 37.2836 31.2572 37.2909 31.2408C37.4859 30.7831 40.0835 24.2969 35.1162 19.7105Z" fill="url(#paint9_radial)"/>
<path d="M15.1959 26.9084C15.1959 26.9084 16.2067 23.1323 22.4354 23.1323C23.109 23.1323 25.0339 21.2488 25.0694 20.7026C25.105 20.1563 21.0865 22.3796 16.8456 20.3792C12.2666 18.2199 8.79224 20.7026 8.79224 20.7026C8.79224 20.7026 10.112 23.9745 13.981 23.9745C13.5754 27.5633 15.4685 31.7477 20.052 33.9436C20.1541 33.992 20.2507 34.0459 20.3555 34.0934C17.6805 32.7105 15.4721 30.089 15.1959 26.9084Z" fill="url(#paint10_radial)"/>
<path d="M45.2977 16.7601C44.3462 14.4647 42.4176 11.9865 40.9037 11.2037C42.136 13.6252 42.8487 16.054 43.1212 17.8663C43.1212 17.8663 43.1212 17.8791 43.1258 17.9028C40.6494 11.7153 36.4496 9.21977 33.0199 3.78761C32.8458 3.51358 32.6726 3.23955 32.5031 2.94634C32.4074 2.78101 32.3299 2.63121 32.2625 2.48963C32.1203 2.21496 32.0105 1.92468 31.9353 1.62461C31.9359 1.61036 31.9312 1.5964 31.9221 1.58543C31.913 1.57446 31.9001 1.56726 31.886 1.56524C31.8726 1.56159 31.8585 1.56159 31.845 1.56524C31.8414 1.56689 31.838 1.56904 31.835 1.57163C31.8295 1.57163 31.8241 1.57802 31.8186 1.57985L31.8277 1.56798C26.3254 4.79786 24.4588 10.7726 24.2875 13.7623C24.5427 13.7449 24.797 13.723 25.0567 13.723C29.1627 13.723 32.7391 15.9865 34.6541 19.3396C33.4847 18.5176 31.3902 17.7028 29.3732 18.0545C37.2516 22.0023 35.1362 35.5978 24.2191 35.0844C23.2471 35.0454 22.2865 34.8606 21.3691 34.5364C21.1549 34.456 20.9398 34.3674 20.7256 34.2724C20.6016 34.2158 20.4786 34.1591 20.361 34.0961L20.3756 34.1052C20.2699 34.0541 20.1632 34.0011 20.0575 33.9463C20.1596 33.9947 20.2562 34.0486 20.361 34.0961C17.6805 32.7104 15.4721 30.0889 15.196 26.9083C15.196 26.9083 16.2067 23.1322 22.4354 23.1322C23.109 23.1322 25.0339 21.2487 25.0695 20.7025C25.0613 20.5244 21.2497 19.0044 19.7631 17.5365C18.9693 16.7528 18.5919 16.3747 18.2575 16.0906C18.0765 15.9372 17.8872 15.7939 17.6905 15.6613C17.1915 13.9105 17.1704 12.0575 17.6295 10.2958C15.3792 11.3234 13.6292 12.9447 12.3569 14.3797H12.3468C11.4782 13.2772 11.5393 9.64086 11.5885 8.8818C11.5785 8.8343 10.9414 9.21338 10.8594 9.27092C10.0929 9.8189 9.37648 10.4339 8.71844 11.1087C7.96961 11.8696 7.28549 12.6918 6.67319 13.5668C5.26449 15.5676 4.26545 17.8283 3.73383 20.2184C3.72381 20.2659 3.71469 20.3152 3.70467 20.3636C3.66365 20.5563 3.47772 21.5374 3.4522 21.7474C3.4522 21.7639 3.4522 21.7319 3.4522 21.7474C3.28155 22.7611 3.17228 23.7842 3.125 24.8111V24.9234C3.125 37.0465 12.932 46.875 25.0285 46.875C35.8626 46.875 44.8575 38.9921 46.6193 28.6374C46.6558 28.357 46.6858 28.0739 46.7186 27.7907C47.1543 24.0255 46.6703 20.0686 45.2977 16.7601ZM43.1249 17.8873V17.911V17.8873Z" fill="url(#paint11_linear)"/>
<defs>
<linearGradient id="paint0_linear" x1="42.3985" y1="8.5822" x2="5.95925" y2="43.6621" gradientUnits="userSpaceOnUse">
<stop offset="0.05" stop-color="#FFF44F"/>
<stop offset="0.11" stop-color="#FFE847"/>
<stop offset="0.22" stop-color="#FFC830"/>
<stop offset="0.37" stop-color="#FF980E"/>
<stop offset="0.4" stop-color="#FF8B16"/>
<stop offset="0.46" stop-color="#FF672A"/>
<stop offset="0.53" stop-color="#FF3647"/>
<stop offset="0.7" stop-color="#E31587"/>
</linearGradient>
<radialGradient id="paint1_radial" cx="0" cy="0" r="1" gradientUnits="userSpaceOnUse" gradientTransform="translate(40.7177 6.59185) scale(45.6635 45.7637)">
<stop offset="0.13" stop-color="#FFBD4F"/>
<stop offset="0.19" stop-color="#FFAC31"/>
<stop offset="0.25" stop-color="#FF9D17"/>
<stop offset="0.28" stop-color="#FF980E"/>
<stop offset="0.4" stop-color="#FF563B"/>
<stop offset="0.47" stop-color="#FF3750"/>
<stop offset="0.71" stop-color="#F5156C"/>
<stop offset="0.78" stop-color="#EB0878"/>
<stop offset="0.86" stop-color="#E50080"/>
</radialGradient>
<radialGradient id="paint2_radial" cx="0" cy="0" r="1" gradientUnits="userSpaceOnUse" gradientTransform="translate(24.0322 25.3007) scale(45.6635 45.7637)">
<stop offset="0.3" stop-color="#960E18"/>
<stop offset="0.35" stop-color="#B11927" stop-opacity="0.74"/>
<stop offset="0.43" stop-color="#DB293D" stop-opacity="0.34"/>
<stop offset="0.5" stop-color="#F5334B" stop-opacity="0.09"/>
<stop offset="0.53" stop-color="#FF3750" stop-opacity="0"/>
</radialGradient>
<radialGradient id="paint3_radial" cx="0" cy="0" r="1" gradientUnits="userSpaceOnUse" gradientTransform="translate(29.5383 -3.79379) scale(33.0812 33.1538)">
<stop offset="0.13" stop-color="#FFF44F"/>
<stop offset="0.25" stop-color="#FFDC3E"/>
<stop offset="0.51" stop-color="#FF9D12"/>
<stop offset="0.53" stop-color="#FF980E"/>
</radialGradient>
<radialGradient id="paint4_radial" cx="0" cy="0" r="1" gradientUnits="userSpaceOnUse" gradientTransform="translate(18.9821 37.2548) scale(21.7421 21.7898)">
<stop offset="0.35" stop-color="#3A8EE6"/>
<stop offset="0.47" stop-color="#5C79F0"/>
<stop offset="0.67" stop-color="#9059FF"/>
<stop offset="1" stop-color="#C139E6"/>
</radialGradient>
<radialGradient id="paint5_radial" cx="0" cy="0" r="1" gradientUnits="userSpaceOnUse" gradientTransform="translate(24.6881 19.8619) rotate(-13.9265) scale(11.5206 13.5602)">
<stop offset="0.21" stop-color="#9059FF" stop-opacity="0"/>
<stop offset="0.28" stop-color="#8C4FF3" stop-opacity="0.06"/>
<stop offset="0.75" stop-color="#7716A8" stop-opacity="0.45"/>
<stop offset="0.97" stop-color="#6E008B" stop-opacity="0.6"/>
</radialGradient>
<radialGradient id="paint6_radial" cx="0" cy="0" r="1" gradientUnits="userSpaceOnUse" gradientTransform="translate(23.4553 4.71939) scale(15.6419 15.6763)">
<stop stop-color="#FFE226"/>
<stop offset="0.12" stop-color="#FFDB27"/>
<stop offset="0.3" stop-color="#FFC82A"/>
<stop offset="0.5" stop-color="#FFA930"/>
<stop offset="0.73" stop-color="#FF7E37"/>
<stop offset="0.79" stop-color="#FF7139"/>
</radialGradient>
<radialGradient id="paint7_radial" cx="0" cy="0" r="1" gradientUnits="userSpaceOnUse" gradientTransform="translate(35.7509 -5.22336) scale(66.7357 66.8822)">
<stop offset="0.11" stop-color="#FFF44F"/>
<stop offset="0.46" stop-color="#FF980E"/>
<stop offset="0.62" stop-color="#FF5634"/>
<stop offset="0.72" stop-color="#FF3647"/>
<stop offset="0.9" stop-color="#E31587"/>
</radialGradient>
<radialGradient id="paint8_radial" cx="0" cy="0" r="1" gradientUnits="userSpaceOnUse" gradientTransform="translate(29.2998 2.08397) rotate(84.2447) scale(48.7494 31.9598)">
<stop stop-color="#FFF44F"/>
<stop offset="0.06" stop-color="#FFE847"/>
<stop offset="0.17" stop-color="#FFC830"/>
<stop offset="0.3" stop-color="#FF980E"/>
<stop offset="0.36" stop-color="#FF8B16"/>
<stop offset="0.45" stop-color="#FF672A"/>
<stop offset="0.57" stop-color="#FF3647"/>
<stop offset="0.74" stop-color="#E31587"/>
</radialGradient>
<radialGradient id="paint9_radial" cx="0" cy="0" r="1" gradientUnits="userSpaceOnUse" gradientTransform="translate(23.0872 10.5251) scale(41.6632 41.7547)">
<stop offset="0.14" stop-color="#FFF44F"/>
<stop offset="0.48" stop-color="#FF980E"/>
<stop offset="0.59" stop-color="#FF5634"/>
<stop offset="0.66" stop-color="#FF3647"/>
<stop offset="0.9" stop-color="#E31587"/>
</radialGradient>
<radialGradient id="paint10_radial" cx="0" cy="0" r="1" gradientUnits="userSpaceOnUse" gradientTransform="translate(34.0853 12.9695) scale(45.6006 45.7007)">
<stop offset="0.09" stop-color="#FFF44F"/>
<stop offset="0.23" stop-color="#FFE141"/>
<stop offset="0.51" stop-color="#FFAF1E"/>
<stop offset="0.63" stop-color="#FF980E"/>
</radialGradient>
<linearGradient id="paint11_linear" x1="41.961" y1="8.39403" x2="10.9538" y2="39.3342" gradientUnits="userSpaceOnUse">
<stop offset="0.17" stop-color="#FFF44F" stop-opacity="0.8"/>
<stop offset="0.27" stop-color="#FFF44F" stop-opacity="0.63"/>
<stop offset="0.49" stop-color="#FFF44F" stop-opacity="0.22"/>
<stop offset="0.6" stop-color="#FFF44F" stop-opacity="0"/>
</linearGradient>
</defs>
</svg>
