<svg width="137" height="74" viewBox="0 0 137 74" fill="none" xmlns="http://www.w3.org/2000/svg">
<g filter="url(#filter0_d)">
<rect x="25" y="19.6062" width="23.3333" height="23.3333" rx="3" fill="#FFDC60"/>
</g>
<g filter="url(#filter1_d)">
<circle cx="49.7913" cy="21.2083" r="10.2083" stroke="white" stroke-width="2"/>
</g>
<path d="M78.7836 34C83.2154 34 85.8432 31.2585 85.8432 26.7131C85.8432 22.1818 83.2154 19.4545 78.883 19.4545H73.8546V34H78.7836ZM76.4895 31.7202V21.7344H78.7338C81.6884 21.7344 83.2296 23.3821 83.2296 26.7131C83.2296 30.0582 81.6884 31.7202 78.6557 31.7202H76.4895ZM88.2331 34H90.8042V27.5866C90.8042 26.2017 91.8482 25.2216 93.2615 25.2216C93.6948 25.2216 94.2346 25.2997 94.4547 25.3707V23.0057C94.2203 22.9631 93.8155 22.9347 93.5314 22.9347C92.2814 22.9347 91.2374 23.6449 90.8397 24.9091H90.726V23.0909H88.2331V34ZM99.0872 34.2202C100.799 34.2202 101.822 33.4176 102.29 32.5014H102.376V34H104.847V26.6989C104.847 23.8153 102.496 22.9489 100.415 22.9489C98.1213 22.9489 96.3599 23.9716 95.7917 25.9602L98.1923 26.3011C98.448 25.5554 99.1724 24.9162 100.43 24.9162C101.623 24.9162 102.276 25.527 102.276 26.5994V26.642C102.276 27.3807 101.502 27.4162 99.5772 27.6222C97.4608 27.8494 95.4366 28.4815 95.4366 30.9389C95.4366 33.0838 97.0062 34.2202 99.0872 34.2202ZM99.7548 32.331C98.6824 32.331 97.9153 31.8409 97.9153 30.8963C97.9153 29.9091 98.7747 29.4972 99.9252 29.3338C100.6 29.2415 101.949 29.071 102.283 28.8011V30.0866C102.283 31.3011 101.303 32.331 99.7548 32.331ZM112.177 38.3182C115.124 38.3182 117.297 36.9688 117.297 34.1776V23.0909H114.762V24.8949H114.62C114.229 24.1065 113.412 22.9489 111.488 22.9489C108.966 22.9489 106.985 24.9233 106.985 28.5099C106.985 32.0682 108.966 33.8438 111.481 33.8438C113.349 33.8438 114.222 32.8423 114.62 32.0398H114.748V34.1065C114.748 35.7116 113.682 36.3722 112.219 36.3722C110.671 36.3722 109.989 35.6406 109.677 35.0014L107.361 35.5625C107.83 37.0895 109.4 38.3182 112.177 38.3182ZM112.198 31.8267C110.501 31.8267 109.606 30.5057 109.606 28.4957C109.606 26.5142 110.486 25.0582 112.198 25.0582C113.853 25.0582 114.762 26.429 114.762 28.4957C114.762 30.5767 113.839 31.8267 112.198 31.8267ZM124.691 34.2131C127.887 34.2131 129.918 31.9616 129.918 28.5881C129.918 25.2074 127.887 22.9489 124.691 22.9489C121.495 22.9489 119.464 25.2074 119.464 28.5881C119.464 31.9616 121.495 34.2131 124.691 34.2131ZM124.705 32.1534C122.937 32.1534 122.07 30.5767 122.07 28.581C122.07 26.5852 122.937 24.9872 124.705 24.9872C126.445 24.9872 127.312 26.5852 127.312 28.581C127.312 30.5767 126.445 32.1534 124.705 32.1534ZM133.684 34.1562C134.522 34.1562 135.24 33.4602 135.247 32.5938C135.24 31.7415 134.522 31.0455 133.684 31.0455C132.818 31.0455 132.115 31.7415 132.122 32.5938C132.115 33.4602 132.818 34.1562 133.684 34.1562Z" fill="#171A22"/>
<defs>
<filter id="filter0_d" x="0" y="0.606201" width="73.3333" height="73.3333" filterUnits="userSpaceOnUse" color-interpolation-filters="sRGB">
<feFlood flood-opacity="0" result="BackgroundImageFix"/>
<feColorMatrix in="SourceAlpha" type="matrix" values="0 0 0 0 0 0 0 0 0 0 0 0 0 0 0 0 0 0 127 0"/>
<feOffset dy="6"/>
<feGaussianBlur stdDeviation="12.5"/>
<feColorMatrix type="matrix" values="0 0 0 0 0.602048 0 0 0 0 0.949963 0 0 0 0 0.930168 0 0 0 0.355129 0"/>
<feBlend mode="normal" in2="BackgroundImageFix" result="effect1_dropShadow"/>
<feBlend mode="normal" in="SourceGraphic" in2="effect1_dropShadow" result="shape"/>
</filter>
<filter id="filter1_d" x="29.583" y="7" width="40.4167" height="40.4167" filterUnits="userSpaceOnUse" color-interpolation-filters="sRGB">
<feFlood flood-opacity="0" result="BackgroundImageFix"/>
<feColorMatrix in="SourceAlpha" type="matrix" values="0 0 0 0 0 0 0 0 0 0 0 0 0 0 0 0 0 0 127 0"/>
<feOffset dy="6"/>
<feGaussianBlur stdDeviation="4.5"/>
<feColorMatrix type="matrix" values="0 0 0 0 0.0944005 0 0 0 0 0.0811398 0 0 0 0 0.223693 0 0 0 0.5 0"/>
<feBlend mode="normal" in2="BackgroundImageFix" result="effect1_dropShadow"/>
<feBlend mode="normal" in="SourceGraphic" in2="effect1_dropShadow" result="shape"/>
</filter>
</defs>
</svg>
