<svg width="50" height="50" viewBox="0 0 50 50" fill="none" xmlns="http://www.w3.org/2000/svg">
<path d="M41.4066 23.4372C43.5638 23.4372 45.3125 21.6884 45.3125 19.5312C45.3125 17.3741 43.5636 15.6253 41.4064 15.6253C39.2491 15.6253 37.5 17.3742 37.5 19.5316V23.4372H41.4066ZM30.4688 23.4372C32.6261 23.4372 34.375 21.6883 34.375 19.5309V8.59408C34.375 6.43672 32.6261 4.68783 30.4688 4.68783C28.3114 4.68783 26.5625 6.43672 26.5625 8.59409V19.5309C26.5625 21.6883 28.3114 23.4372 30.4688 23.4372Z" fill="#2EB67D"/>
<path d="M8.59341 26.5628C6.43624 26.5628 4.6875 28.3116 4.6875 30.4688C4.6875 32.6259 6.43641 34.3747 8.59358 34.3747C10.7509 34.3747 12.5 32.6258 12.5 30.4684V26.5628H8.59341ZM19.5312 26.5628C17.3739 26.5628 15.625 28.3117 15.625 30.4691V41.4059C15.625 43.5633 17.3739 45.3122 19.5312 45.3122C21.6886 45.3122 23.4375 43.5633 23.4375 41.4059V30.4691C23.4375 28.3117 21.6886 26.5628 19.5312 26.5628Z" fill="#E01E5A"/>
<path d="M26.5627 41.4066C26.5627 43.5638 28.3114 45.3125 30.4686 45.3125C32.6258 45.3125 34.3745 43.5636 34.3745 41.4064C34.3745 39.2491 32.6256 37.5 30.4683 37.5L26.5627 37.5L26.5627 41.4066ZM26.5627 30.4687C26.5627 32.6261 28.3116 34.375 30.4689 34.375L41.4058 34.375C43.5631 34.375 45.312 32.6261 45.312 30.4688C45.312 28.3114 43.5631 26.5625 41.4058 26.5625L30.4689 26.5625C28.3116 26.5625 26.5627 28.3114 26.5627 30.4687Z" fill="#ECB22E"/>
<path d="M23.4371 8.59342C23.4371 6.43624 21.6883 4.6875 19.5312 4.6875C17.374 4.6875 15.6252 6.43641 15.6252 8.59358C15.6252 10.7509 17.3741 12.5 19.5315 12.5L23.4371 12.5L23.4371 8.59342ZM23.4371 19.5313C23.4371 17.3739 21.6882 15.625 19.5308 15.625L8.59399 15.625C6.43663 15.625 4.68774 17.3739 4.68774 19.5312C4.68774 21.6886 6.43663 23.4375 8.59399 23.4375L19.5308 23.4375C21.6882 23.4375 23.4371 21.6886 23.4371 19.5313Z" fill="#36C5F0"/>
</svg>
