<svg width="122" height="110" viewBox="0 0 122 110" fill="none" xmlns="http://www.w3.org/2000/svg">
<circle cx="35" cy="35" r="35" fill="#FFDC60"/>
<path d="M30.1514 73.067C30.1514 73.067 30.7667 80.5983 30.9097 82.973C31.1004 86.158 32.331 89.7157 34.385 92.1857C37.284 95.687 40.6987 96.922 45.2574 96.9307C50.6177 96.9393 89.596 96.9393 94.9564 96.9307C99.515 96.922 102.93 95.687 105.829 92.1857C107.883 89.7157 109.113 86.158 109.308 82.973C109.447 80.5983 110.062 73.067 110.062 73.067" stroke="#171A22" stroke-width="4" stroke-linecap="round" stroke-linejoin="round"/>
<path d="M54.8162 29.0945V27.4868C54.8162 22.2002 59.0975 17.9188 64.3842 17.9188H75.5728C80.8552 17.9188 85.1408 22.2002 85.1408 27.4868L85.1452 29.0945" stroke="#171A22" stroke-width="4" stroke-linecap="round" stroke-linejoin="round"/>
<path d="M69.9787 78.2721V72.6648" stroke="#171A22" stroke-width="4" stroke-linecap="round" stroke-linejoin="round"/>
<path fill-rule="evenodd" clip-rule="evenodd" d="M29.9165 42.3528V57.3764C38.2278 62.8581 48.1858 66.6974 59.1145 68.2184C60.4232 63.4474 64.7262 59.9504 69.9565 59.9504C75.1045 59.9504 79.4942 63.4474 80.7162 68.2618C91.6882 66.7408 101.685 62.9014 110.04 57.3764V42.3528C110.04 35.0121 104.134 29.1014 96.7928 29.1014H43.2068C35.8662 29.1014 29.9165 35.0121 29.9165 42.3528Z" stroke="#171A22" stroke-width="4" stroke-linecap="round" stroke-linejoin="round"/>
</svg>
