<svg width="50" height="50" viewBox="0 0 50 50" fill="none" xmlns="http://www.w3.org/2000/svg">
<path d="M25 3.12502C12.9346 3.12502 3.125 12.9346 3.125 25C3.125 37.0655 12.9346 46.875 25 46.875C37.0654 46.875 46.875 37.0655 46.875 25C46.875 12.9346 37.0654 3.12502 25 3.12502Z" fill="url(#paint0_radial)"/>
<path fill-rule="evenodd" clip-rule="evenodd" d="M20.6172 22.5937C20.5903 22.6033 20.5583 22.5945 20.5403 22.5725C19.69 21.4533 19.4764 19.5292 19.4244 18.7902C19.4138 18.6479 19.2528 18.5679 19.1239 18.6394C16.4985 20.1054 14.0625 23.5735 14.0625 26.9218C14.0625 32.6742 18.0815 37.5 25 37.5C31.482 37.5 35.9375 32.5263 35.9375 26.9225C35.9375 19.5901 30.6667 14.7183 25.972 12.516C25.8622 12.4645 25.7165 12.5706 25.7327 12.6902C26.3373 16.6417 25.502 20.9394 20.6172 22.5937Z" fill="white"/>
<defs>
<radialGradient id="paint0_radial" cx="0" cy="0" r="1" gradientUnits="userSpaceOnUse" gradientTransform="translate(25 46.875) scale(46.7394)">
<stop stop-color="#FF7854"/>
<stop offset="1" stop-color="#FD267D"/>
</radialGradient>
</defs>
</svg>
