<svg width="50" height="50" viewBox="0 0 50 50" fill="none" xmlns="http://www.w3.org/2000/svg">
<rect x="3.125" y="3.125" width="43.75" height="43.75" rx="6" fill="#2789F6"/>
<path d="M35.8177 28.647C35.4811 28.1903 35.4057 27.728 35.5896 27.2596C36.0486 26.0098 42.7334 18.0721 39.9486 18.0721C38.035 18.0975 35.7337 18.0721 33.8991 18.0721C33.5585 18.155 33.3382 18.3337 33.2003 18.6974C32.1275 21.171 30.8147 24.1898 28.8907 26.1299C28.6376 26.334 28.4798 26.3253 28.1914 26.2498C26.8418 24.829 28.2809 19.9611 27.4602 18.0376C27.2984 17.6611 26.9444 17.491 26.5821 17.3953C24.7498 16.9586 20.5651 17.2185 19.8823 18.0975C19.6872 18.3488 19.6599 18.4859 19.8008 18.5085C20.4514 18.6111 20.9119 18.8566 21.183 19.2448C21.6943 20.3709 22.0712 26.3694 20.5651 26.3694C19.0591 26.3694 16.6305 20.4825 15.9633 18.8506C15.7858 18.3592 15.3338 18.0775 14.8576 17.9943L10.402 18.0284C9.61884 18.0284 9.18113 18.4147 9.45872 19.1931C11.7794 24.9536 16.8578 36.1194 24.6467 35.8398C25.427 35.8398 26.7693 36.1394 27.3787 35.4629C28.2162 34.3519 27.1948 32.3732 28.6309 31.6186C28.993 31.4259 29.3684 31.5874 29.6795 31.8243C31.2768 33.0406 32.1249 35.1753 34.0947 35.8234C34.441 35.9375 34.7445 35.966 35.005 35.909L39.1678 35.8406C39.9406 35.8406 40.7019 35.4967 40.542 34.5728C39.9351 32.5914 37.5168 30.5547 35.8177 28.647Z" fill="white"/>
</svg>
